<mxfile host="Electron" agent="Mozilla/5.0 (Windows NT 10.0; Win64; x64) AppleWebKit/537.36 (KHTML, like Gecko) draw.io/26.2.2 Chrome/134.0.6998.178 Electron/35.1.2 Safari/537.36" version="26.2.2">
  <diagram name="Page-1" id="mJvWHnBbbaiwXgKDSSw1">
    <mxGraphModel dx="1542" dy="428" grid="1" gridSize="10" guides="1" tooltips="1" connect="1" arrows="1" fold="1" page="1" pageScale="1" pageWidth="827" pageHeight="1169" background="none" math="0" shadow="0">
      <root>
        <mxCell id="0" />
        <mxCell id="1" parent="0" />
        <mxCell id="Bc2S0wxGSODyYP3UHa-O-6" value="&lt;font style=&quot;font-size: 22px;&quot;&gt;Data Flow Diagram&amp;nbsp;&lt;/font&gt;" style="text;html=1;align=center;verticalAlign=middle;resizable=0;points=[];autosize=1;strokeColor=#B09500;fillColor=#e3c800;labelBackgroundColor=none;fontColor=#000000;" parent="1" vertex="1">
          <mxGeometry x="-10" y="10" width="220" height="40" as="geometry" />
        </mxCell>
        <mxCell id="Bc2S0wxGSODyYP3UHa-O-7" value="" style="rounded=0;whiteSpace=wrap;html=1;labelBackgroundColor=none;" parent="1" vertex="1">
          <mxGeometry x="70" y="120" width="120" height="360" as="geometry" />
        </mxCell>
        <mxCell id="Bc2S0wxGSODyYP3UHa-O-8" value="&lt;font style=&quot;font-size: 19px;&quot;&gt;Source&lt;/font&gt;" style="text;html=1;align=center;verticalAlign=middle;whiteSpace=wrap;rounded=0;fillColor=#B1DDF0;fontColor=#182E3E;strokeColor=#BAC8D3;labelBackgroundColor=none;" parent="1" vertex="1">
          <mxGeometry x="70" y="90" width="120" height="30" as="geometry" />
        </mxCell>
        <mxCell id="Bc2S0wxGSODyYP3UHa-O-9" value="" style="image;aspect=fixed;html=1;points=[];align=center;fontSize=12;image=img/lib/azure2/general/Folder_Blank.svg;labelBackgroundColor=none;fillColor=#B1DDF0;strokeColor=#BAC8D3;fontColor=#182E3E;" parent="1" vertex="1">
          <mxGeometry x="111.52" y="200" width="36.96" height="30" as="geometry" />
        </mxCell>
        <mxCell id="Bc2S0wxGSODyYP3UHa-O-10" value="CRM" style="text;html=1;align=center;verticalAlign=middle;whiteSpace=wrap;rounded=0;labelBackgroundColor=none;fontColor=#182E3E;" parent="1" vertex="1">
          <mxGeometry x="100" y="240" width="60" height="30" as="geometry" />
        </mxCell>
        <mxCell id="Bc2S0wxGSODyYP3UHa-O-11" value="ERP" style="text;html=1;align=center;verticalAlign=middle;whiteSpace=wrap;rounded=0;labelBackgroundColor=none;fontColor=#182E3E;" parent="1" vertex="1">
          <mxGeometry x="100" y="380" width="60" height="30" as="geometry" />
        </mxCell>
        <mxCell id="Bc2S0wxGSODyYP3UHa-O-12" value="" style="image;aspect=fixed;html=1;points=[];align=center;fontSize=12;image=img/lib/azure2/general/Folder_Blank.svg;labelBackgroundColor=none;fillColor=#B1DDF0;strokeColor=#BAC8D3;fontColor=#182E3E;" parent="1" vertex="1">
          <mxGeometry x="111.52" y="340" width="36.96" height="30" as="geometry" />
        </mxCell>
        <mxCell id="Bc2S0wxGSODyYP3UHa-O-14" value="" style="rounded=0;whiteSpace=wrap;html=1;labelBackgroundColor=none;" parent="1" vertex="1">
          <mxGeometry x="270" y="120" width="140" height="360" as="geometry" />
        </mxCell>
        <mxCell id="Bc2S0wxGSODyYP3UHa-O-15" value="&lt;font style=&quot;font-size: 19px;&quot;&gt;Bronze Layer&lt;/font&gt;" style="text;html=1;align=center;verticalAlign=middle;whiteSpace=wrap;rounded=0;fillColor=#f0a30a;strokeColor=#BD7000;labelBackgroundColor=none;fontColor=#000000;" parent="1" vertex="1">
          <mxGeometry x="270" y="90" width="140" height="30" as="geometry" />
        </mxCell>
        <mxCell id="Bc2S0wxGSODyYP3UHa-O-16" value="&lt;font&gt;crm_sales_details&lt;/font&gt;" style="text;html=1;align=center;verticalAlign=middle;whiteSpace=wrap;rounded=0;fillColor=#f0a30a;strokeColor=#BD7000;labelBackgroundColor=none;fontColor=#000000;" parent="1" vertex="1">
          <mxGeometry x="280" y="160" width="120" height="30" as="geometry" />
        </mxCell>
        <mxCell id="Bc2S0wxGSODyYP3UHa-O-17" value="&lt;font&gt;crm_cust_info&lt;/font&gt;" style="text;html=1;align=center;verticalAlign=middle;whiteSpace=wrap;rounded=0;fillColor=#f0a30a;strokeColor=#BD7000;labelBackgroundColor=none;fontColor=#000000;" parent="1" vertex="1">
          <mxGeometry x="280" y="200" width="120" height="30" as="geometry" />
        </mxCell>
        <mxCell id="Bc2S0wxGSODyYP3UHa-O-18" value="&lt;font&gt;crm_prd_info&lt;/font&gt;" style="text;html=1;align=center;verticalAlign=middle;whiteSpace=wrap;rounded=0;fillColor=#f0a30a;strokeColor=#BD7000;labelBackgroundColor=none;fontColor=#000000;" parent="1" vertex="1">
          <mxGeometry x="280" y="240" width="120" height="30" as="geometry" />
        </mxCell>
        <mxCell id="Bc2S0wxGSODyYP3UHa-O-19" value="&lt;font&gt;erp_loc_a101&lt;/font&gt;" style="text;html=1;align=center;verticalAlign=middle;whiteSpace=wrap;rounded=0;fillColor=#f0a30a;strokeColor=#BD7000;labelBackgroundColor=none;fontColor=#000000;" parent="1" vertex="1">
          <mxGeometry x="280" y="310" width="120" height="30" as="geometry" />
        </mxCell>
        <mxCell id="Bc2S0wxGSODyYP3UHa-O-20" value="&lt;font&gt;erp_cust_az12&lt;/font&gt;" style="text;html=1;align=center;verticalAlign=middle;whiteSpace=wrap;rounded=0;fillColor=#f0a30a;strokeColor=#BD7000;labelBackgroundColor=none;fontColor=#000000;" parent="1" vertex="1">
          <mxGeometry x="280" y="350" width="120" height="30" as="geometry" />
        </mxCell>
        <mxCell id="Bc2S0wxGSODyYP3UHa-O-21" value="&lt;font&gt;erp_px_cat_g1v2&lt;/font&gt;" style="text;html=1;align=center;verticalAlign=middle;whiteSpace=wrap;rounded=0;fillColor=#f0a30a;strokeColor=#BD7000;labelBackgroundColor=none;fontColor=#000000;" parent="1" vertex="1">
          <mxGeometry x="280" y="390" width="120" height="30" as="geometry" />
        </mxCell>
        <mxCell id="Bc2S0wxGSODyYP3UHa-O-27" value="" style="edgeStyle=elbowEdgeStyle;elbow=horizontal;endArrow=classic;html=1;curved=0;rounded=0;endSize=8;startSize=8;labelBackgroundColor=none;fontColor=default;entryX=0;entryY=0.75;entryDx=0;entryDy=0;exitX=0.879;exitY=0.733;exitDx=0;exitDy=0;exitPerimeter=0;strokeColor=#FFFFFF;" parent="1" source="Bc2S0wxGSODyYP3UHa-O-9" target="Bc2S0wxGSODyYP3UHa-O-16" edge="1">
          <mxGeometry width="50" height="50" relative="1" as="geometry">
            <mxPoint x="220" y="220" as="sourcePoint" />
            <mxPoint x="270" y="180" as="targetPoint" />
            <Array as="points">
              <mxPoint x="230" y="210" />
            </Array>
          </mxGeometry>
        </mxCell>
        <mxCell id="Bc2S0wxGSODyYP3UHa-O-28" value="" style="edgeStyle=elbowEdgeStyle;elbow=horizontal;endArrow=classic;html=1;curved=0;rounded=0;endSize=8;startSize=8;labelBackgroundColor=none;fontColor=default;exitX=0.906;exitY=0.7;exitDx=0;exitDy=0;exitPerimeter=0;entryX=0;entryY=0.5;entryDx=0;entryDy=0;strokeColor=#FFFFFF;" parent="1" source="Bc2S0wxGSODyYP3UHa-O-9" target="Bc2S0wxGSODyYP3UHa-O-18" edge="1">
          <mxGeometry width="50" height="50" relative="1" as="geometry">
            <mxPoint x="160" y="220" as="sourcePoint" />
            <mxPoint x="270" y="250" as="targetPoint" />
            <Array as="points">
              <mxPoint x="230" y="260" />
            </Array>
          </mxGeometry>
        </mxCell>
        <mxCell id="Bc2S0wxGSODyYP3UHa-O-32" value="" style="endArrow=classic;html=1;rounded=0;exitX=1.014;exitY=0.733;exitDx=0;exitDy=0;exitPerimeter=0;labelBackgroundColor=none;fontColor=default;entryX=0;entryY=0.75;entryDx=0;entryDy=0;strokeColor=#FFFFFF;" parent="1" source="Bc2S0wxGSODyYP3UHa-O-9" target="Bc2S0wxGSODyYP3UHa-O-17" edge="1">
          <mxGeometry width="50" height="50" relative="1" as="geometry">
            <mxPoint x="148.48" y="220" as="sourcePoint" />
            <mxPoint x="214.48" y="200" as="targetPoint" />
          </mxGeometry>
        </mxCell>
        <mxCell id="9cON3bagpLzMyQevSY7A-3" value="" style="rounded=0;whiteSpace=wrap;html=1;labelBackgroundColor=none;" parent="1" vertex="1">
          <mxGeometry x="490" y="120" width="140" height="360" as="geometry" />
        </mxCell>
        <mxCell id="9cON3bagpLzMyQevSY7A-4" value="&lt;font style=&quot;font-size: 19px;&quot;&gt;Silver Layer&lt;/font&gt;" style="text;html=1;align=center;verticalAlign=middle;whiteSpace=wrap;rounded=0;fillColor=#f5f5f5;strokeColor=#666666;labelBackgroundColor=none;fontColor=#333333;" parent="1" vertex="1">
          <mxGeometry x="490" y="90" width="140" height="30" as="geometry" />
        </mxCell>
        <mxCell id="9cON3bagpLzMyQevSY7A-5" value="&lt;font&gt;crm_sales_details&lt;/font&gt;" style="text;html=1;align=center;verticalAlign=middle;whiteSpace=wrap;rounded=0;fillColor=#f5f5f5;strokeColor=#666666;fontColor=#333333;labelBackgroundColor=none;" parent="1" vertex="1">
          <mxGeometry x="500" y="160" width="120" height="30" as="geometry" />
        </mxCell>
        <mxCell id="9cON3bagpLzMyQevSY7A-6" value="&lt;font&gt;crm_cust_info&lt;/font&gt;" style="text;html=1;align=center;verticalAlign=middle;whiteSpace=wrap;rounded=0;fillColor=#f5f5f5;strokeColor=#666666;fontColor=#333333;labelBackgroundColor=none;" parent="1" vertex="1">
          <mxGeometry x="500" y="200" width="120" height="30" as="geometry" />
        </mxCell>
        <mxCell id="9cON3bagpLzMyQevSY7A-7" value="&lt;font&gt;crm_prd_info&lt;/font&gt;" style="text;html=1;align=center;verticalAlign=middle;whiteSpace=wrap;rounded=0;fillColor=#f5f5f5;strokeColor=#666666;fontColor=#333333;labelBackgroundColor=none;" parent="1" vertex="1">
          <mxGeometry x="500" y="240" width="120" height="30" as="geometry" />
        </mxCell>
        <mxCell id="9cON3bagpLzMyQevSY7A-8" value="&lt;font&gt;erp_loc_a101&lt;/font&gt;" style="text;html=1;align=center;verticalAlign=middle;whiteSpace=wrap;rounded=0;fillColor=#f5f5f5;strokeColor=#666666;fontColor=#333333;labelBackgroundColor=none;" parent="1" vertex="1">
          <mxGeometry x="500" y="310" width="120" height="30" as="geometry" />
        </mxCell>
        <mxCell id="9cON3bagpLzMyQevSY7A-9" value="&lt;font&gt;erp_cust_az12&lt;/font&gt;" style="text;html=1;align=center;verticalAlign=middle;whiteSpace=wrap;rounded=0;fillColor=#f5f5f5;strokeColor=#666666;fontColor=#333333;labelBackgroundColor=none;" parent="1" vertex="1">
          <mxGeometry x="500" y="350" width="120" height="30" as="geometry" />
        </mxCell>
        <mxCell id="9cON3bagpLzMyQevSY7A-10" value="&lt;font&gt;erp_px_cat_g1v2&lt;/font&gt;" style="text;html=1;align=center;verticalAlign=middle;whiteSpace=wrap;rounded=0;fillColor=#f5f5f5;strokeColor=#666666;fontColor=#333333;labelBackgroundColor=none;" parent="1" vertex="1">
          <mxGeometry x="500" y="390" width="120" height="30" as="geometry" />
        </mxCell>
        <mxCell id="9cON3bagpLzMyQevSY7A-11" value="" style="endArrow=classic;html=1;rounded=0;exitX=1;exitY=0.5;exitDx=0;exitDy=0;entryX=0;entryY=0.5;entryDx=0;entryDy=0;strokeColor=light-dark(#000000,#FFFFFF);" parent="1" source="Bc2S0wxGSODyYP3UHa-O-16" target="9cON3bagpLzMyQevSY7A-5" edge="1">
          <mxGeometry width="50" height="50" relative="1" as="geometry">
            <mxPoint x="450" y="220" as="sourcePoint" />
            <mxPoint x="500" y="170" as="targetPoint" />
          </mxGeometry>
        </mxCell>
        <mxCell id="9cON3bagpLzMyQevSY7A-12" value="" style="endArrow=classic;html=1;rounded=0;exitX=1;exitY=0.5;exitDx=0;exitDy=0;entryX=0;entryY=0.5;entryDx=0;entryDy=0;strokeColor=light-dark(#000000,#FFFFFF);" parent="1" edge="1">
          <mxGeometry width="50" height="50" relative="1" as="geometry">
            <mxPoint x="400" y="214.5" as="sourcePoint" />
            <mxPoint x="500" y="214.5" as="targetPoint" />
          </mxGeometry>
        </mxCell>
        <mxCell id="9cON3bagpLzMyQevSY7A-13" value="" style="endArrow=classic;html=1;rounded=0;exitX=1;exitY=0.5;exitDx=0;exitDy=0;entryX=0;entryY=0.5;entryDx=0;entryDy=0;strokeColor=light-dark(#000000,#FFFFFF);" parent="1" edge="1">
          <mxGeometry width="50" height="50" relative="1" as="geometry">
            <mxPoint x="400" y="254.5" as="sourcePoint" />
            <mxPoint x="500" y="254.5" as="targetPoint" />
          </mxGeometry>
        </mxCell>
        <mxCell id="9cON3bagpLzMyQevSY7A-14" value="" style="endArrow=classic;html=1;rounded=0;exitX=1;exitY=0.5;exitDx=0;exitDy=0;entryX=0;entryY=0.5;entryDx=0;entryDy=0;strokeColor=light-dark(#000000,#FFFFFF);" parent="1" edge="1">
          <mxGeometry width="50" height="50" relative="1" as="geometry">
            <mxPoint x="400" y="324.5" as="sourcePoint" />
            <mxPoint x="500" y="324.5" as="targetPoint" />
          </mxGeometry>
        </mxCell>
        <mxCell id="9cON3bagpLzMyQevSY7A-15" value="" style="endArrow=classic;html=1;rounded=0;exitX=1;exitY=0.5;exitDx=0;exitDy=0;entryX=0;entryY=0.5;entryDx=0;entryDy=0;strokeColor=light-dark(#000000,#FFFFFF);" parent="1" edge="1">
          <mxGeometry width="50" height="50" relative="1" as="geometry">
            <mxPoint x="400" y="364.5" as="sourcePoint" />
            <mxPoint x="500" y="364.5" as="targetPoint" />
          </mxGeometry>
        </mxCell>
        <mxCell id="9cON3bagpLzMyQevSY7A-16" value="" style="endArrow=classic;html=1;rounded=0;exitX=1;exitY=0.5;exitDx=0;exitDy=0;entryX=0;entryY=0.5;entryDx=0;entryDy=0;strokeColor=light-dark(#000000,#FFFFFF);" parent="1" edge="1">
          <mxGeometry width="50" height="50" relative="1" as="geometry">
            <mxPoint x="400" y="404.5" as="sourcePoint" />
            <mxPoint x="500" y="404.5" as="targetPoint" />
          </mxGeometry>
        </mxCell>
        <mxCell id="9cON3bagpLzMyQevSY7A-23" value="" style="edgeStyle=elbowEdgeStyle;elbow=horizontal;endArrow=classic;html=1;curved=0;rounded=0;endSize=8;startSize=8;labelBackgroundColor=none;fontColor=default;entryX=0;entryY=0.75;entryDx=0;entryDy=0;exitX=0.879;exitY=0.733;exitDx=0;exitDy=0;exitPerimeter=0;strokeColor=#FFFFFF;" parent="1" edge="1">
          <mxGeometry width="50" height="50" relative="1" as="geometry">
            <mxPoint x="148.48" y="368" as="sourcePoint" />
            <mxPoint x="284.48" y="329" as="targetPoint" />
            <Array as="points">
              <mxPoint x="234.48" y="356" />
            </Array>
          </mxGeometry>
        </mxCell>
        <mxCell id="9cON3bagpLzMyQevSY7A-24" value="" style="endArrow=classic;html=1;rounded=0;exitX=1.014;exitY=0.733;exitDx=0;exitDy=0;exitPerimeter=0;labelBackgroundColor=none;fontColor=default;entryX=0;entryY=0.75;entryDx=0;entryDy=0;strokeColor=#FFFFFF;" parent="1" edge="1">
          <mxGeometry width="50" height="50" relative="1" as="geometry">
            <mxPoint x="153.48" y="368" as="sourcePoint" />
            <mxPoint x="284.48" y="369" as="targetPoint" />
          </mxGeometry>
        </mxCell>
        <mxCell id="9cON3bagpLzMyQevSY7A-25" value="" style="edgeStyle=elbowEdgeStyle;elbow=horizontal;endArrow=classic;html=1;curved=0;rounded=0;endSize=8;startSize=8;labelBackgroundColor=none;fontColor=default;exitX=0.906;exitY=0.7;exitDx=0;exitDy=0;exitPerimeter=0;entryX=0;entryY=0.5;entryDx=0;entryDy=0;strokeColor=#FFFFFF;" parent="1" edge="1">
          <mxGeometry width="50" height="50" relative="1" as="geometry">
            <mxPoint x="149.48" y="367" as="sourcePoint" />
            <mxPoint x="284.48" y="401" as="targetPoint" />
            <Array as="points">
              <mxPoint x="234.48" y="406" />
            </Array>
          </mxGeometry>
        </mxCell>
        <mxCell id="LpNHJpBLvhgtU69P0LY_-2" value="" style="rounded=0;whiteSpace=wrap;html=1;labelBackgroundColor=none;" vertex="1" parent="1">
          <mxGeometry x="700" y="110" width="140" height="370" as="geometry" />
        </mxCell>
        <mxCell id="LpNHJpBLvhgtU69P0LY_-3" value="&lt;font style=&quot;font-size: 19px;&quot;&gt;Gold Layer&lt;/font&gt;" style="text;html=1;align=center;verticalAlign=middle;whiteSpace=wrap;rounded=0;fillColor=#e3c800;strokeColor=#B09500;labelBackgroundColor=none;fontColor=#000000;" vertex="1" parent="1">
          <mxGeometry x="700" y="90" width="140" height="30" as="geometry" />
        </mxCell>
        <mxCell id="LpNHJpBLvhgtU69P0LY_-4" value="fact_sales" style="text;html=1;align=center;verticalAlign=middle;whiteSpace=wrap;rounded=0;fillColor=#e3c800;strokeColor=#B09500;labelBackgroundColor=none;fontColor=#000000;" vertex="1" parent="1">
          <mxGeometry x="707" y="190" width="120" height="30" as="geometry" />
        </mxCell>
        <mxCell id="LpNHJpBLvhgtU69P0LY_-5" value="&lt;font&gt;dim_customers&lt;/font&gt;" style="text;html=1;align=center;verticalAlign=middle;whiteSpace=wrap;rounded=0;fillColor=#e3c800;strokeColor=#B09500;labelBackgroundColor=none;fontColor=#000000;" vertex="1" parent="1">
          <mxGeometry x="707" y="270" width="120" height="30" as="geometry" />
        </mxCell>
        <mxCell id="LpNHJpBLvhgtU69P0LY_-6" value="&lt;font&gt;dim_products&lt;/font&gt;" style="text;html=1;align=center;verticalAlign=middle;whiteSpace=wrap;rounded=0;fillColor=#e3c800;strokeColor=#B09500;labelBackgroundColor=none;fontColor=#000000;" vertex="1" parent="1">
          <mxGeometry x="707" y="350" width="120" height="30" as="geometry" />
        </mxCell>
        <mxCell id="LpNHJpBLvhgtU69P0LY_-10" value="" style="endArrow=classic;html=1;rounded=0;exitX=1;exitY=0.5;exitDx=0;exitDy=0;" edge="1" parent="1" source="9cON3bagpLzMyQevSY7A-5">
          <mxGeometry width="50" height="50" relative="1" as="geometry">
            <mxPoint x="657" y="250" as="sourcePoint" />
            <mxPoint x="707" y="200" as="targetPoint" />
          </mxGeometry>
        </mxCell>
        <mxCell id="LpNHJpBLvhgtU69P0LY_-11" value="" style="endArrow=classic;html=1;rounded=0;exitX=1;exitY=0.5;exitDx=0;exitDy=0;jumpStyle=gap;" edge="1" parent="1" source="9cON3bagpLzMyQevSY7A-6">
          <mxGeometry width="50" height="50" relative="1" as="geometry">
            <mxPoint x="620" y="260" as="sourcePoint" />
            <mxPoint x="707" y="285" as="targetPoint" />
          </mxGeometry>
        </mxCell>
        <mxCell id="LpNHJpBLvhgtU69P0LY_-12" value="" style="endArrow=classic;html=1;rounded=0;exitX=1;exitY=0.5;exitDx=0;exitDy=0;jumpStyle=gap;" edge="1" parent="1" source="9cON3bagpLzMyQevSY7A-10">
          <mxGeometry width="50" height="50" relative="1" as="geometry">
            <mxPoint x="650" y="390" as="sourcePoint" />
            <mxPoint x="707" y="365" as="targetPoint" />
          </mxGeometry>
        </mxCell>
        <mxCell id="LpNHJpBLvhgtU69P0LY_-13" value="" style="endArrow=classic;html=1;rounded=0;exitX=1;exitY=0.5;exitDx=0;exitDy=0;entryX=0.025;entryY=0.333;entryDx=0;entryDy=0;entryPerimeter=0;jumpStyle=gap;" edge="1" parent="1" source="9cON3bagpLzMyQevSY7A-7" target="LpNHJpBLvhgtU69P0LY_-6">
          <mxGeometry width="50" height="50" relative="1" as="geometry">
            <mxPoint x="620" y="390" as="sourcePoint" />
            <mxPoint x="707" y="350" as="targetPoint" />
          </mxGeometry>
        </mxCell>
        <mxCell id="LpNHJpBLvhgtU69P0LY_-14" value="" style="endArrow=classic;html=1;rounded=0;exitX=1;exitY=0.5;exitDx=0;exitDy=0;entryX=0;entryY=0.75;entryDx=0;entryDy=0;jumpStyle=gap;" edge="1" parent="1" source="9cON3bagpLzMyQevSY7A-9" target="LpNHJpBLvhgtU69P0LY_-5">
          <mxGeometry width="50" height="50" relative="1" as="geometry">
            <mxPoint x="600" y="290" as="sourcePoint" />
            <mxPoint x="687" y="360" as="targetPoint" />
          </mxGeometry>
        </mxCell>
        <mxCell id="LpNHJpBLvhgtU69P0LY_-15" value="" style="endArrow=classic;html=1;rounded=0;exitX=1;exitY=0.5;exitDx=0;exitDy=0;jumpStyle=gap;" edge="1" parent="1" source="9cON3bagpLzMyQevSY7A-8">
          <mxGeometry width="50" height="50" relative="1" as="geometry">
            <mxPoint x="620" y="260" as="sourcePoint" />
            <mxPoint x="707" y="285" as="targetPoint" />
          </mxGeometry>
        </mxCell>
      </root>
    </mxGraphModel>
  </diagram>
</mxfile>
